<?xml version="1.0" standalone="no"?>
<!DOCTYPE svg PUBLIC "-//W3C//DTD SVG 20010904//EN"
 "http://www.w3.org/TR/2001/REC-SVG-20010904/DTD/svg10.dtd">
<svg version="1.0" xmlns="http://www.w3.org/2000/svg"
 width="486.000000pt" height="486.000000pt" viewBox="0 0 486.000000 486.000000"
 preserveAspectRatio="xMidYMid meet">
<metadata>
Created by potrace 1.11, written by Peter Selinger 2001-2013
</metadata>
<g transform="translate(0.000000,486.000000) scale(0.100000,-0.100000)"
fill="#000000" stroke="none">
<path d="M1500 4452 l-255 -3 -135 -236 c-74 -130 -153 -268 -174 -307 -22
-39 -42 -73 -45 -76 -3 -3 -13 -18 -21 -35 -8 -16 -17 -32 -20 -35 -6 -6 -50
-86 -65 -117 -5 -13 -13 -23 -17 -23 -5 0 -8 -4 -8 -9 0 -5 -20 -43 -44 -84
-25 -41 -42 -78 -39 -81 4 -3 1 -6 -5 -6 -7 0 -12 -7 -12 -15 0 -8 -4 -15 -10
-15 -5 0 -10 -4 -10 -8 0 -5 -39 -76 -86 -158 -48 -82 -87 -155 -87 -161 0 -7
-4 -13 -8 -13 -4 0 -27 -35 -51 -77 -23 -43 -51 -91 -60 -108 -10 -16 -20 -38
-24 -47 -3 -10 -10 -18 -15 -18 -5 0 -9 -4 -9 -10 0 -5 -13 -31 -29 -58 -15
-26 -39 -68 -53 -93 -14 -24 -41 -71 -61 -105 -20 -33 -37 -66 -39 -74 -2 -7
-11 -22 -21 -32 -19 -21 -21 -16 75 -177 21 -34 38 -65 38 -67 0 -2 18 -33 40
-69 22 -36 40 -70 40 -75 0 -6 5 -10 10 -10 6 0 10 -5 10 -10 0 -6 48 -92 106
-193 59 -100 118 -202 132 -227 14 -25 43 -73 64 -108 21 -34 38 -64 38 -67 0
-2 30 -55 68 -117 37 -62 73 -124 80 -138 32 -62 44 -80 53 -80 6 0 8 -4 5 -8
-3 -5 5 -24 17 -43 34 -55 40 -65 71 -124 16 -30 33 -55 38 -55 4 0 8 -5 8
-10 0 -11 88 -170 99 -180 4 -3 20 -31 36 -63 17 -32 38 -67 48 -77 9 -11 17
-22 16 -26 -1 -3 13 -32 32 -64 l33 -58 1098 2 c603 1 1100 4 1103 8 3 3 -19
47 -50 97 -30 51 -55 96 -55 101 0 4 -3 10 -7 12 -5 1 -15 15 -23 30 -58 106
-164 278 -171 278 -5 0 -8 4 -6 9 1 5 -9 28 -23 50 l-25 41 -739 0 c-816 -1
-743 -6 -778 60 -13 25 -181 314 -384 662 -60 103 -118 205 -129 225 -11 21
-38 67 -59 103 -47 79 -62 104 -116 200 -24 41 -52 88 -62 103 -11 15 -18 36
-16 45 3 10 56 105 117 212 62 107 113 200 114 205 1 6 5 12 8 15 13 10 72
115 72 128 0 6 4 12 8 12 4 0 23 28 42 63 60 108 78 141 113 198 19 31 34 61
34 67 0 6 4 12 9 14 5 2 11 10 13 18 2 8 5 17 8 20 15 14 83 135 83 147 0 7 4
13 8 13 4 0 23 28 42 63 71 129 115 205 125 217 2 3 339 6 749 6 415 1 748 5
752 10 5 5 19 29 32 54 13 25 30 51 37 58 7 8 10 17 7 22 -3 5 -2 10 3 12 9 4
181 293 185 311 1 6 7 16 13 22 6 5 27 39 47 75 l35 65 -857 0 c-471 0 -971
-1 -1111 -3z"/>
<path d="M3590 4357 c-13 -23 -23 -44 -21 -46 1 -2 -2 -7 -7 -10 -14 -9 -63
-91 -55 -91 5 0 3 -4 -2 -8 -15 -10 -58 -72 -50 -72 3 0 -3 -10 -15 -22 -11
-12 -20 -27 -20 -34 0 -6 -7 -17 -15 -24 -8 -7 -12 -16 -9 -21 3 -5 1 -9 -3
-9 -12 0 -69 -100 -65 -114 2 -6 0 -8 -4 -3 -4 4 -23 -20 -42 -53 -27 -49 -31
-64 -22 -75 7 -8 10 -15 7 -15 -4 0 5 -16 18 -36 13 -19 27 -44 30 -55 4 -10
11 -19 16 -19 6 0 7 -4 4 -10 -3 -5 -3 -10 2 -10 4 0 17 -18 27 -40 11 -22 24
-40 29 -40 6 0 7 -3 4 -6 -4 -4 2 -19 13 -34 11 -16 20 -31 20 -34 0 -10 63
-111 74 -118 6 -4 8 -8 4 -8 -4 0 10 -29 32 -65 22 -36 40 -70 40 -76 0 -5 4
-7 10 -4 6 3 7 -1 4 -9 -3 -9 -1 -16 5 -16 6 0 11 -4 11 -9 0 -5 17 -38 38
-72 21 -35 53 -91 71 -124 18 -32 41 -71 52 -86 10 -15 19 -32 19 -38 0 -6 4
-11 10 -11 5 0 9 -3 8 -7 -2 -8 68 -134 103 -185 11 -15 19 -31 19 -36 0 -4 8
-17 18 -28 9 -11 18 -25 19 -32 2 -6 16 -33 33 -60 36 -59 36 -62 7 -110 -46
-72 -88 -152 -80 -152 4 0 3 -4 -3 -8 -14 -9 -49 -65 -99 -157 -21 -38 -41
-72 -45 -75 -3 -3 -13 -21 -22 -40 -9 -19 -28 -52 -43 -73 -14 -21 -23 -43
-20 -48 4 -5 2 -9 -2 -9 -10 0 -113 -173 -113 -189 0 -6 -4 -11 -8 -11 -9 0
-57 -91 -54 -102 1 -5 -2 -8 -6 -8 -9 0 -64 -95 -62 -106 1 -4 -2 -10 -7 -13
-14 -10 -55 -81 -47 -81 4 0 -1 -7 -12 -15 -10 -8 -14 -15 -9 -15 6 0 6 -3 -1
-8 -14 -9 -90 -145 -86 -154 1 -5 -2 -8 -6 -8 -5 0 -13 -10 -19 -23 -9 -19 -5
-32 23 -77 18 -30 39 -66 47 -80 61 -108 142 -246 146 -250 3 -3 15 -22 25
-43 11 -20 23 -37 28 -37 4 0 7 -3 6 -7 -2 -5 15 -39 37 -76 35 -60 41 -66 52
-51 7 9 10 21 7 25 -3 5 -1 9 4 9 5 0 41 55 79 123 39 67 100 175 137 239 37
65 66 120 66 124 -1 4 2 10 7 13 6 3 26 35 46 71 21 36 42 72 47 80 6 8 13 22
17 30 4 8 19 35 35 59 15 24 25 48 21 54 -3 6 -1 7 5 3 11 -6 14 0 11 20 0 4
3 10 8 13 13 9 56 81 48 81 -3 0 2 9 12 20 10 10 32 45 48 77 17 32 36 64 43
71 6 7 12 20 12 28 0 8 4 14 8 14 4 0 13 12 19 28 7 15 23 45 37 67 14 22 37
63 52 90 15 28 37 65 50 84 13 19 21 38 18 43 -3 4 0 8 5 8 6 0 11 6 11 14 0
8 4 16 8 18 4 2 34 50 67 108 33 58 64 113 70 122 5 9 22 39 36 65 15 26 42
74 62 106 l35 58 -65 112 c-36 62 -68 114 -72 117 -3 3 -7 10 -8 15 -1 9 -127
230 -162 285 -9 14 -21 37 -28 53 -7 15 -17 27 -23 27 -5 0 -9 3 -8 8 3 9
-114 216 -124 220 -5 2 -6 8 -2 13 3 5 0 9 -5 9 -6 0 -11 5 -11 10 0 6 -18 40
-40 76 -22 36 -40 68 -40 70 0 2 -22 41 -50 85 -27 44 -50 82 -50 84 0 8 -85
151 -93 156 -5 3 -8 9 -8 13 1 3 -5 16 -13 29 -7 12 -40 67 -71 122 -81 141
-88 154 -124 213 -17 29 -31 57 -31 62 0 6 -4 10 -10 10 -5 0 -10 5 -10 11 0
7 -18 40 -40 75 -22 35 -40 68 -40 73 0 26 -19 16 -40 -22z"/>
<path d="M2470 3686 c0 -10 74 -131 84 -138 6 -4 8 -8 4 -8 -4 0 78 -149 183
-331 104 -182 189 -333 189 -336 0 -3 11 -21 25 -39 14 -18 25 -37 25 -43 0
-5 6 -16 13 -23 12 -14 36 -55 70 -120 10 -21 22 -38 26 -38 4 0 8 -6 8 -13 0
-6 12 -32 27 -55 15 -24 36 -59 47 -78 l19 -35 -95 -165 c-52 -91 -95 -170
-95 -175 0 -5 -4 -9 -10 -9 -5 0 -10 -4 -10 -9 0 -8 -187 -334 -237 -413 -13
-21 -21 -38 -18 -38 3 0 -3 -10 -15 -22 -11 -12 -20 -25 -20 -30 0 -4 -13 -27
-29 -50 -16 -24 -27 -46 -25 -50 3 -5 0 -8 -5 -8 -6 0 -11 -7 -11 -15 0 -8 -4
-15 -10 -15 -5 0 -10 -4 -10 -10 0 -5 -16 -34 -35 -65 -20 -30 -39 -63 -42
-73 -4 -9 -13 -23 -20 -30 -7 -8 -11 -18 -8 -23 4 -5 2 -9 -2 -9 -5 0 -16 -12
-25 -27 l-16 -28 286 2 c158 1 307 2 333 2 43 1 46 3 67 44 11 23 28 53 36 67
36 59 136 232 136 235 0 1 36 64 79 139 44 75 77 136 73 136 -4 0 -2 4 4 8 14
9 94 147 94 161 0 6 4 11 9 11 5 0 11 8 15 18 3 9 18 38 33 63 26 43 48 82
118 203 15 28 41 72 56 98 16 27 29 53 29 58 0 6 4 10 10 10 5 0 -9 36 -33 79
-23 44 -46 77 -51 74 -5 -4 -6 -1 -1 7 4 7 3 15 -2 19 -4 3 -44 67 -86 141
-43 74 -82 142 -87 150 -37 58 -100 172 -100 180 0 6 -4 10 -9 10 -5 0 -11 8
-14 18 -4 9 -21 42 -39 73 -18 31 -52 90 -76 130 -23 41 -47 81 -52 89 -5 8
-33 56 -61 105 -28 50 -59 101 -67 115 -9 14 -17 27 -17 30 0 3 -7 15 -15 28
l-15 22 -317 0 c-175 0 -318 -2 -318 -4z"/>
</g>
</svg>
